# xmcd CD database file
#
# Track frame offsets:
#	150
#	15524
#	39647
#	56737
#	78736
#	100120
#	110881
#	134925
#	151726
#	166999
#	183500
#	199249
#
# Disc length: 2869 seconds
#
# Revision: 0
# Processed by: cddbd v1.4PL0 Copyright (c) Steve Scherf et al.
# Submitted via: CDex 1.40Release
#
DISCID=a80b330c
DTITLE=Alberta Adams - I'm On The Move
DYEAR=2003
DGENRE=Blues
TTITLE0=Leavin'
TTITLE1=A Fool Like You
TTITLE2=Slow Down Baby
TTITLE3=Remember Me
TTITLE4=I'm On The Move
TTITLE5=I Paid My Dues To The Blues
TTITLE6=Tired Of Being Alone
TTITLE7=Your Lovin'
TTITLE8=Detroit
TTITLE9=Mr. Blues
TTITLE10=Come And See About Me
TTITLE11=Keep On Keeping On
EXTD=YEAR: 2003 ID3G: 0
EXTT0=
EXTT1=
EXTT2=
EXTT3=
EXTT4=
EXTT5=
EXTT6=
EXTT7=
EXTT8=
EXTT9=
EXTT10=
EXTT11=
PLAYORDER=
